<?xml version="1.0" encoding="utf-8"?>
<!-- Generator: Adobe Illustrator 16.0.0, SVG Export Plug-In . SVG Version: 6.00 Build 0)  -->
<!DOCTYPE svg PUBLIC "-//W3C//DTD SVG 1.1//EN" "http://www.w3.org/Graphics/SVG/1.1/DTD/svg11.dtd">
<svg version="1.1" id="Layer_1" xmlns="http://www.w3.org/2000/svg" xmlns:xlink="http://www.w3.org/1999/xlink" x="0px" y="0px"
	 width="93.543px" height="114.667px" viewBox="0 0 93.543 114.667" enable-background="new 0 0 93.543 114.667"
	 xml:space="preserve">
<g>
	<g>
		<path fill-rule="evenodd" clip-rule="evenodd" fill="#464738" d="M48.827,111.482c0.35-4.008,0.276-7.958,0.257-11.906
			c-0.013-2.587-0.036-5.175-0.128-7.76c-0.114-3.21-0.304-6.418-0.46-9.627C48.339,79,49.311,76.2,51.472,73.85
			c2.639-2.869,5.326-5.693,7.975-8.555c3.147-3.401,6.3-6.8,9.396-10.248c0.759-0.845,1.276-1.901,1.967-2.814
			c0.579-0.766,1.228-1.483,1.89-2.181c0.208-0.22,0.549-0.337,0.85-0.441c0.706-0.243,1.088-0.023,1.275,0.702
			c0.766,2.964,0.247,5.711-1.508,8.194c-1.337,1.893-2.782,3.707-4.139,5.586c-0.896,1.24-1.67,2.558-2.031,4.072
			c-0.285,1.194-0.22,1.259,1.005,1.12c2.373-0.268,4.279-1.482,6.035-2.985c1.538-1.316,2.916-2.795,3.956-4.531
			c1.374-2.292,2.679-4.627,3.952-6.977c1.423-2.627,1.904-5.488,2.083-8.446c0.188-3.098,0.461-6.197,1.278-9.212
			c0.231-0.852,0.513-1.686,1.262-2.262c1.011-0.78,1.997-0.539,2.32,0.697c0.219,0.835,0.25,1.737,0.252,2.61
			c0.014,5.983-0.182,11.961-0.871,17.909c-0.475,4.086-1.122,8.143-2.547,12.031c-0.811,2.214-1.986,4.143-3.835,5.686
			c-1.542,1.286-2.98,2.707-4.375,4.154c-1.914,1.984-4.215,3.463-6.391,5.107c-1.845,1.395-3.487,2.996-4.832,4.889
			c-1.626,2.286-2.493,4.813-2.59,7.632c-0.126,3.696-0.349,7.39-0.491,11.086c-0.023,0.595-0.26,0.965-0.751,1.179
			c-0.919,0.399-1.837,0.823-2.79,1.121C56.233,110.095,52.55,110.801,48.827,111.482z"/>
		<path fill-rule="evenodd" clip-rule="evenodd" fill="#464738" d="M44.64,111.477c-4.044-0.775-8.126-1.503-12.05-2.882
			c-0.655-0.23-1.274-0.569-1.896-0.887c-0.337-0.173-0.49-0.462-0.507-0.876c-0.125-3.032-0.25-6.064-0.429-9.094
			c-0.1-1.698-0.136-3.427-0.492-5.079c-0.677-3.146-2.547-5.643-4.887-7.765c-1.327-1.202-2.82-2.218-4.211-3.353
			c-1.446-1.179-2.89-2.363-4.276-3.61c-1.643-1.477-3.182-3.07-4.842-4.525c-1.48-1.297-2.436-2.903-3.157-4.687
			c-1.144-2.829-1.773-5.794-2.25-8.792C4.772,54.456,4.408,48.94,4.314,43.404c-0.035-2.083-0.076-4.168-0.059-6.251
			c0.005-0.615,0.117-1.261,0.333-1.835c0.355-0.943,1.154-1.139,2.009-0.601c0.59,0.372,1.016,0.899,1.175,1.558
			c0.393,1.617,0.832,3.235,1.047,4.88c0.375,2.865,0.561,5.754,0.892,8.625c0.205,1.768,0.942,3.382,1.707,4.968
			c1.522,3.16,3.179,6.249,5.415,8.974c1.76,2.145,3.779,4.018,6.428,5.016c0.89,0.335,1.878,0.416,2.825,0.591
			c0.35,0.065,0.46-0.099,0.417-0.47c-0.159-1.356-0.69-2.578-1.452-3.672c-1.405-2.019-2.867-4-4.347-5.965
			c-1.482-1.968-2.418-4.119-2.32-6.62c0.031-0.8,0.198-1.601,0.365-2.387c0.132-0.619,0.516-0.81,1.128-0.645
			c0.835,0.226,1.439,0.792,1.99,1.416c0.248,0.282,0.497,0.582,0.661,0.915c1.023,2.08,2.581,3.759,4.129,5.428
			c4.058,4.371,8.165,8.697,12.245,13.048c1.02,1.088,1.998,2.215,3.02,3.301c2.566,2.728,3.378,5.99,3.049,9.641
			c-0.162,1.805-0.273,3.618-0.306,5.429c-0.1,5.569-0.174,11.139-0.208,16.708C44.445,107.442,44.574,109.429,44.64,111.477z"/>
	</g>
	<path fill-rule="evenodd" clip-rule="evenodd" fill="#11964A" d="M65.852,41.674c-0.038,2.41-0.364,4.725-1.11,6.972
		c-1.934,5.817-5.993,9.162-11.981,10.216c-1.021,0.18-2.064,0.26-3.102,0.303c-0.501,0.021-0.583,0.194-0.581,0.637
		c0.015,3.612,0.008,7.226,0.008,10.838c0,0.214,0,0.428,0,0.683c-1.735,0-3.433,0-5.22,0c0-0.194,0-0.4,0-0.607
		c0-3.487-0.01-6.974,0.011-10.461c0.003-0.491-0.145-0.609-0.626-0.658c-3.917-0.399-7.56-1.512-10.536-4.252
		c-2.659-2.447-4.109-5.544-4.688-9.053c-0.238-1.443-0.241-2.926-0.334-4.392c-0.017-0.263,0.048-0.53,0.085-0.889
		c1.099,0.11,2.166,0.183,3.221,0.331c2.823,0.396,5.49,1.251,7.855,2.891c3.254,2.257,5.103,5.428,5.909,9.248
		c0.173,0.821,0.255,1.664,0.342,2.501c0.039,0.381,0.178,0.552,0.569,0.521c0.268-0.021,0.538,0,0.807-0.004
		c1.262-0.018,0.951,0.107,1.145-1.027c0.708-4.155,2.358-7.786,5.769-10.438c2.232-1.734,4.796-2.709,7.568-3.156
		C62.557,41.62,64.163,41.474,65.852,41.674z"/>
	<path fill-rule="evenodd" clip-rule="evenodd" fill="#92278F" d="M46.691,28.447c-8.477-8.052-7.649-18.023,0.089-25.262
		c1.064,1.337,2.185,2.619,3.166,4.002c1.61,2.276,2.646,4.809,2.893,7.608c0.219,2.497-0.229,4.894-1.271,7.178
		c-1.082,2.368-2.61,4.41-4.508,6.183C46.944,28.263,46.813,28.352,46.691,28.447z"/>
	<g>
		<path fill="#4077BB" d="M27.901,22.91c0,0,9.249-0.363,14.383,6.312c3.515,4.526,3.051,10.849,2.808,12.212
			c-1.143,0.513-10.093-1.586-13.167-5.349C30.965,34.88,27.899,32.248,27.901,22.91z"/>
		<path fill="#4077BB" d="M65.641,22.91c0,0-9.248-0.363-14.383,6.312c-3.515,4.526-3.051,10.849-2.809,12.212
			c1.144,0.513,10.094-1.586,13.167-5.349C62.578,34.88,65.643,32.248,65.641,22.91z"/>
	</g>
</g>
</svg>
